<?xml version="1.0" encoding="UTF-8" standalone="no"?>
<!-- Created with Inkscape (http://www.inkscape.org/) -->

<svg
   xmlns:dc="http://purl.org/dc/elements/1.1/"
   xmlns:cc="http://creativecommons.org/ns#"
   xmlns:rdf="http://www.w3.org/1999/02/22-rdf-syntax-ns#"
   xmlns:svg="http://www.w3.org/2000/svg"
   xmlns="http://www.w3.org/2000/svg"
   xmlns:sodipodi="http://sodipodi.sourceforge.net/DTD/sodipodi-0.dtd"
   xmlns:inkscape="http://www.inkscape.org/namespaces/inkscape"
   width="758.15106"
   height="324.46875"
   id="svg3761"
   version="1.1"
   inkscape:version="0.48.4 r9939"
   sodipodi:docname="conveyor_stand.svg">
  <defs
     id="defs3763" />
  <sodipodi:namedview
     id="base"
     pagecolor="#ffffff"
     bordercolor="#666666"
     borderopacity="1.0"
     inkscape:pageopacity="0.0"
     inkscape:pageshadow="2"
     inkscape:zoom="0.57057397"
     inkscape:cx="389.51895"
     inkscape:cy="417.58328"
     inkscape:document-units="mm"
     inkscape:current-layer="layer2"
     showgrid="false"
     inkscape:window-width="1436"
     inkscape:window-height="877"
     inkscape:window-x="-2"
     inkscape:window-y="19"
     inkscape:window-maximized="1"
     units="mm"
     fit-margin-top="0"
     fit-margin-left="0"
     fit-margin-right="0"
     fit-margin-bottom="0"
     showguides="true"
     inkscape:guide-bbox="true">
    <sodipodi:guide
       orientation="1,0"
       position="254.32795,296.79449"
       id="guide3019" />
    <sodipodi:guide
       orientation="1,0"
       position="462.69198,646.7172"
       id="guide3021" />
    <sodipodi:guide
       orientation="0,1"
       position="487.66073,466.42677"
       id="guide3023" />
    <sodipodi:guide
       orientation="0,1"
       position="531.48236,588.8807"
       id="guide3031" />
    <sodipodi:guide
       orientation="1,0"
       position="532.90637,583.73238"
       id="guide3033" />
    <sodipodi:guide
       orientation="1,0"
       position="586.36131,588.8807"
       id="guide3035" />
  </sodipodi:namedview>
  <metadata
     id="metadata3766">
    <rdf:RDF>
      <cc:Work
         rdf:about="">
        <dc:format>image/svg+xml</dc:format>
        <dc:type
           rdf:resource="http://purl.org/dc/dcmitype/StillImage" />
        <dc:title />
      </cc:Work>
    </rdf:RDF>
  </metadata>
  <g
     inkscape:groupmode="layer"
     id="layer2"
     inkscape:label="wor"
     style="display:inline"
     transform="translate(112.5573,0)">
    <g
       id="g3040"
       transform="translate(-376.81354,220.83026)">
      <path
         id="path3096"
         d="m 447.10646,-397.90939 c -43.37469,0 -61.15625,45.14355 -61.15625,61.125 0,15.98144 8.59971,28.07456 19.88004,43.48903 11.28033,15.41447 14.51882,39.84633 35.96371,39.41722 l 0,-56.25 10.625,0 0,56.25 c 21.38505,0.42911 24.65346,-23.67419 35.94127,-38.92439 11.28781,-15.25019 19.90248,-27.34331 19.90248,-43.98186 0,-16.63856 -17.78156,-61.125 -61.15625,-61.125 z"
         style="color:#000000;fill:#808000;fill-opacity:0.58704451;fill-rule:evenodd;stroke:none;stroke-width:7.08661413;marker:none;visibility:visible;display:inline;overflow:visible;enable-background:accumulate"
         inkscape:connector-curvature="0"
         sodipodi:nodetypes="zzsccccszz" />
      <rect
         inkscape:transform-center-y="-41.082157"
         y="-383.55612"
         x="441.84125"
         height="7.0866141"
         width="10.629921"
         id="rect3074"
         style="color:#000000;fill:#808000;fill-opacity:0.58704451;fill-rule:evenodd;stroke:none;stroke-width:7.08661413;marker:none;visibility:visible;display:inline;overflow:visible;enable-background:accumulate" />
      <rect
         inkscape:transform-center-x="-41.082155"
         transform="matrix(0,1,-1,0,0,0)"
         style="color:#000000;fill:#808000;fill-opacity:0.58704451;fill-rule:evenodd;stroke:none;stroke-width:7.08661413;marker:none;visibility:visible;display:inline;overflow:visible;enable-background:accumulate"
         id="rect3101"
         width="10.629921"
         height="7.0866141"
         x="-342.24564"
         y="-493.78168" />
      <rect
         inkscape:transform-center-x="41.082157"
         transform="matrix(0,-1,1,0,0,0)"
         style="color:#000000;fill:#808000;fill-opacity:0.58704451;fill-rule:evenodd;stroke:none;stroke-width:7.08661413;marker:none;visibility:visible;display:inline;overflow:visible;enable-background:accumulate"
         id="rect3103"
         width="10.629921"
         height="7.0866141"
         x="331.61572"
         y="402.53073" />
    </g>
    <path
       style="opacity:0.25514401;fill:#000000;fill-opacity:1;fill-rule:evenodd;stroke:none"
       d="M 254.3125 -311.96875 L 254.3125 0 L 230.28125 0 C 235.6271 8.11059 238.75 17.80953 238.75 28.25 C 238.75 39.91642 234.86117 50.68158 228.3125 59.3125 L 228.3125 129.28125 L 146.8125 129.28125 L 146.8125 59.90625 C 139.99133 51.17646 135.90625 40.1883 135.90625 28.25 C 135.90625 17.80953 139.02915 8.11059 144.375 0 L 111.0625 0 L 111.0625 306.46875 L 111.0625 324.46875 L 758.15625 324.46875 L 758.15625 306.46875 L 758.15625 0 L 722.3125 0 C 721.3388 71.56691 663.0482 129.28125 591.25 129.28125 C 519.4517 129.28125 461.12995 71.567 460.15625 0 L 431.5 0 L 431.5 -311.96875 L 348.21875 -311.96875 L 348.21875 -276.53125 L 337.5625 -276.53125 L 337.5625 -311.96875 L 254.3125 -311.96875 z "
       transform="translate(-112.5573,0)"
       id="path3007" />
    <path
       sodipodi:type="arc"
       style="color:#000000;fill:#808000;fill-opacity:0.58704451;fill-rule:evenodd;stroke:none;stroke-width:7.08661413;marker:none;visibility:visible;display:inline;overflow:visible;enable-background:accumulate"
       id="path3013"
       sodipodi:cx="290.49695"
       sodipodi:cy="-122.01148"
       sodipodi:rx="9.2012606"
       sodipodi:ry="10.077572"
       d="m 299.69821,-122.01148 a 9.2012606,10.077572 0 1 1 -18.40252,0 9.2012606,10.077572 0 1 1 18.40252,0 z"
       transform="matrix(0.78943309,0,0,0.72078668,1.0055197,124.23418)" />
    <path
       transform="matrix(0.78943309,0,0,0.72078668,-61.002353,17.93497)"
       d="m 299.69821,-122.01148 a 9.2012606,10.077572 0 1 1 -18.40252,0 9.2012606,10.077572 0 1 1 18.40252,0 z"
       sodipodi:ry="10.077572"
       sodipodi:rx="9.2012606"
       sodipodi:cy="-122.01148"
       sodipodi:cx="290.49695"
       id="path3015"
       style="color:#000000;fill:#808000;fill-opacity:0.58704451;fill-rule:evenodd;stroke:none;stroke-width:7.08661413;marker:none;visibility:visible;display:inline;overflow:visible;enable-background:accumulate"
       sodipodi:type="arc" />
    <path
       sodipodi:type="arc"
       style="color:#000000;fill:#808000;fill-opacity:0.58704451;fill-rule:evenodd;stroke:none;stroke-width:7.08661413;marker:none;visibility:visible;display:inline;overflow:visible;enable-background:accumulate"
       id="path3017"
       sodipodi:cx="290.49695"
       sodipodi:cy="-122.01148"
       sodipodi:rx="9.2012606"
       sodipodi:ry="10.077572"
       d="m 299.69821,-122.01148 a 9.2012606,10.077572 0 1 1 -18.40252,0 9.2012606,10.077572 0 1 1 18.40252,0 z"
       transform="matrix(0.78943309,0,0,0.72078668,63.013392,17.93497)" />
  </g>
</svg>
