<?xml version="1.0" encoding="UTF-8" standalone="no"?>
<!-- Created with Inkscape (http://www.inkscape.org/) -->

<svg
   xmlns:dc="http://purl.org/dc/elements/1.1/"
   xmlns:cc="http://creativecommons.org/ns#"
   xmlns:rdf="http://www.w3.org/1999/02/22-rdf-syntax-ns#"
   xmlns:svg="http://www.w3.org/2000/svg"
   xmlns="http://www.w3.org/2000/svg"
   xmlns:sodipodi="http://sodipodi.sourceforge.net/DTD/sodipodi-0.dtd"
   xmlns:inkscape="http://www.inkscape.org/namespaces/inkscape"
   width="2267.7166"
   height="294.09448"
   id="svg2"
   version="1.1"
   inkscape:version="0.48.4 r9939"
   sodipodi:docname="optic_holes_cladding.dxf">
  <defs
     id="defs4" />
  <sodipodi:namedview
     id="base"
     pagecolor="#ffffff"
     bordercolor="#666666"
     borderopacity="1.0"
     inkscape:pageopacity="0.0"
     inkscape:pageshadow="2"
     inkscape:zoom="0.3050644"
     inkscape:cx="1388.2787"
     inkscape:cy="422.99084"
     inkscape:document-units="mm"
     inkscape:current-layer="layer1"
     showgrid="false"
     units="mm"
     fit-margin-top="0"
     fit-margin-left="0"
     fit-margin-right="0"
     fit-margin-bottom="0"
     inkscape:window-width="1436"
     inkscape:window-height="877"
     inkscape:window-x="0"
     inkscape:window-y="19"
     inkscape:window-maximized="1"
     showguides="true"
     inkscape:guide-bbox="true" />
  <metadata
     id="metadata7">
    <rdf:RDF>
      <cc:Work
         rdf:about="">
        <dc:format>image/svg+xml</dc:format>
        <dc:type
           rdf:resource="http://purl.org/dc/dcmitype/StillImage" />
        <dc:title></dc:title>
      </cc:Work>
    </rdf:RDF>
  </metadata>
  <g
     inkscape:label="Layer 1"
     inkscape:groupmode="layer"
     id="layer1"
     transform="translate(0,-758.2677)">
    <path
       style="color:#000000;fill:#000000;fill-opacity:0.58704451;fill-rule:evenodd;stroke:none;stroke-width:7.08661413;marker:none;visibility:visible;display:inline;overflow:visible;enable-background:accumulate"
       d="m 0,758.2677 2267.7166,0 0,294.0945 -2267.7166,0 z"
       id="rect2985" />
    <path
       style="color:#000000;fill:#000000;fill-opacity:0.58704451;fill-rule:evenodd;stroke:none;stroke-width:7.08661413;marker:none;visibility:visible;display:inline;overflow:visible;enable-background:accumulate"
       d="m 364.15139,807.87402 8.70508,0 c 19.18161,0 34.62384,15.44223 34.62384,34.62384 l 0,125.63422 c 0,19.18161 -15.44223,34.62382 -34.62384,34.62382 l -8.70508,0 c -19.1816,0 -34.62383,-15.44221 -34.62383,-34.62382 l 0,-125.63422 c 0,-19.18161 15.44223,-34.62384 34.62383,-34.62384 z"
       id="rect3771" />
    <path
       style="color:#000000;fill:#000000;fill-opacity:0.58704451;fill-rule:evenodd;stroke:none;stroke-width:7.08661413;marker:none;visibility:visible;display:inline;overflow:visible;enable-background:accumulate"
       d="m 718.48205,807.87402 8.70508,0 c 19.18161,0 34.62384,15.44223 34.62384,34.62384 l 0,125.63422 c 0,19.18161 -15.44223,34.62382 -34.62384,34.62382 l -8.70508,0 c -19.1816,0 -34.62383,-15.44221 -34.62383,-34.62382 l 0,-125.63422 c 0,-19.18161 15.44223,-34.62384 34.62383,-34.62384 z"
       id="rect3775" />
    <path
       style="color:#000000;fill:#000000;fill-opacity:0.58704451;fill-rule:evenodd;stroke:none;stroke-width:7.08661413;marker:none;visibility:visible;display:inline;overflow:visible;enable-background:accumulate"
       d="m 1072.8128,807.87402 8.7051,0 c 19.1816,0 34.6238,15.44223 34.6238,34.62384 l 0,125.63422 c 0,19.18161 -15.4422,34.62382 -34.6238,34.62382 l -8.7051,0 c -19.1816,0 -34.6238,-15.44221 -34.6238,-34.62382 l 0,-125.63422 c 0,-19.18161 15.4422,-34.62384 34.6238,-34.62384 z"
       id="rect3777" />
    <path
       style="color:#000000;fill:#000000;fill-opacity:0.58704451;fill-rule:evenodd;stroke:none;stroke-width:7.08661413;marker:none;visibility:visible;display:inline;overflow:visible;enable-background:accumulate"
       d="m 1427.1435,807.87402 8.7051,0 c 19.1816,0 34.6238,15.44223 34.6238,34.62384 l 0,125.63422 c 0,19.18161 -15.4422,34.62382 -34.6238,34.62382 l -8.7051,0 c -19.1816,0 -34.6238,-15.44221 -34.6238,-34.62382 l 0,-125.63422 c 0,-19.18161 15.4422,-34.62384 34.6238,-34.62384 z"
       id="rect3779" />
    <path
       style="color:#000000;fill:#000000;fill-opacity:0.58704451;fill-rule:evenodd;stroke:none;stroke-width:7.08661413;marker:none;visibility:visible;display:inline;overflow:visible;enable-background:accumulate"
       d="m 1781.4742,807.87402 8.7051,0 c 19.1816,0 34.6238,15.44223 34.6238,34.62384 l 0,125.63422 c 0,19.18161 -15.4422,34.62382 -34.6238,34.62382 l -8.7051,0 c -19.1816,0 -34.6239,-15.44221 -34.6239,-34.62382 l 0,-125.63422 c 0,-19.18161 15.4423,-34.62384 34.6239,-34.62384 z"
       id="rect3781" />
    <path
       style="color:#000000;fill:#000000;fill-opacity:0.58704451;fill-rule:evenodd;stroke:none;stroke-width:7.08661413;marker:none;visibility:visible;display:inline;overflow:visible;enable-background:accumulate"
       d="m 2135.805,807.87402 8.7051,0 c 19.1816,0 34.6238,15.44223 34.6238,34.62384 l 0,125.63422 c 0,19.18161 -15.4422,34.62382 -34.6238,34.62382 l -8.7051,0 c -19.1816,0 -34.6238,-15.44221 -34.6238,-34.62382 l 0,-125.63422 c 0,-19.18161 15.4422,-34.62384 34.6238,-34.62384 z"
       id="rect3783" />
    <path
       style="color:#000000;fill:#000000;fill-opacity:0.58704451;fill-rule:evenodd;stroke:none;stroke-width:7.08661413;marker:none;visibility:visible;display:inline;overflow:visible;enable-background:accumulate"
       d="m 46.771688,1016.5749 c 0,4.1095 -3.331423,7.4409 -7.440942,7.4409 -4.109522,0 -7.440945,-3.3314 -7.440945,-7.4409 0,-4.1096 3.331423,-7.441 7.440945,-7.441 4.109519,0 7.440942,3.3314 7.440942,7.441 z"
       id="path2997"
       inkscape:connector-curvature="0" />
    <path
       style="color:#000000;fill:#000000;fill-opacity:0.58704451;fill-rule:evenodd;stroke:none;stroke-width:7.08661413;marker:none;visibility:visible;display:inline;overflow:visible;enable-background:accumulate"
       d="m 2235.8268,1005.9449 c 0,4.1095 -3.3314,7.441 -7.4409,7.441 -4.1096,0 -7.441,-3.3315 -7.441,-7.441 0,-4.1095 3.3314,-7.44092 7.441,-7.44092 4.1095,0 7.4409,3.33142 7.4409,7.44092 z"
       id="path3003"
       inkscape:connector-curvature="0" />
    <path
       style="color:#000000;fill:#000000;fill-opacity:0.58704451;fill-rule:evenodd;stroke:none;stroke-width:7.08661413;marker:none;visibility:visible;display:inline;overflow:visible;enable-background:accumulate"
       d="m 1616.1024,1009.4882 c 0,4.1096 -3.3314,7.441 -7.4409,7.441 -4.1096,0 -7.441,-3.3314 -7.441,-7.441 0,-4.1095 3.3314,-7.4409 7.441,-7.4409 4.1095,0 7.4409,3.3314 7.4409,7.4409 z"
       id="path3013"
       inkscape:connector-curvature="0" />
    <path
       style="color:#000000;fill:#000000;fill-opacity:0.58704451;fill-rule:evenodd;stroke:none;stroke-width:7.08661413;marker:none;visibility:visible;display:inline;overflow:visible;enable-background:accumulate"
       d="m 907.44101,1013.0315 c 0,4.1096 -3.33142,7.441 -7.44094,7.441 -4.10952,0 -7.44095,-3.3314 -7.44095,-7.441 0,-4.1095 3.33143,-7.4409 7.44095,-7.4409 4.10952,0 7.44094,3.3314 7.44094,7.4409 z"
       id="path3017"
       inkscape:connector-curvature="0" />
    <path
       style="color:#000000;fill:#000000;fill-opacity:0.58704451;fill-rule:evenodd;stroke:none;stroke-width:7.08661413;marker:none;visibility:visible;display:inline;overflow:visible;enable-background:accumulate"
       d="m 46.771688,804.68503 c 0,4.10952 -3.331423,7.44095 -7.440942,7.44095 -4.109522,0 -7.440945,-3.33143 -7.440945,-7.44095 0,-4.10952 3.331423,-7.44094 7.440945,-7.44094 4.109519,0 7.440942,3.33142 7.440942,7.44094 z"
       id="path3021"
       inkscape:connector-curvature="0" />
    <path
       style="color:#000000;fill:#000000;fill-opacity:0.58704451;fill-rule:evenodd;stroke:none;stroke-width:7.08661413;marker:none;visibility:visible;display:inline;overflow:visible;enable-background:accumulate"
       d="m 2242.9134,801.14172 c 0,4.10952 -3.3314,7.44095 -7.4409,7.44095 -4.1096,0 -7.441,-3.33143 -7.441,-7.44095 0,-4.10952 3.3314,-7.44094 7.441,-7.44094 4.1095,0 7.4409,3.33142 7.4409,7.44094 z"
       id="path3023"
       inkscape:connector-curvature="0" />
    <path
       style="color:#000000;fill:#000000;fill-opacity:0.58704451;fill-rule:evenodd;stroke:none;stroke-width:7.08661413;marker:none;visibility:visible;display:inline;overflow:visible;enable-background:accumulate"
       d="m 1616.1024,797.59842 c 0,4.10952 -3.3314,7.44094 -7.4409,7.44094 -4.1096,0 -7.441,-3.33142 -7.441,-7.44094 0,-4.10952 3.3314,-7.44095 7.441,-7.44095 4.1095,0 7.4409,3.33143 7.4409,7.44095 z"
       id="path3027"
       inkscape:connector-curvature="0" />
    <path
       style="color:#000000;fill:#000000;fill-opacity:0.58704451;fill-rule:evenodd;stroke:none;stroke-width:7.08661413;marker:none;visibility:visible;display:inline;overflow:visible;enable-background:accumulate"
       d="m 907.44101,794.05511 c 0,4.10952 -3.33142,7.44094 -7.44094,7.44094 -4.10952,0 -7.44095,-3.33142 -7.44095,-7.44094 0,-4.10952 3.33143,-7.44095 7.44095,-7.44095 4.10952,0 7.44094,3.33143 7.44094,7.44095 z"
       id="path3031"
       inkscape:connector-curvature="0" />
  </g>
</svg>
