<?xml version="1.0" encoding="UTF-8" standalone="no"?>
<!-- Created with Inkscape (http://www.inkscape.org/) -->

<svg
   xmlns:dc="http://purl.org/dc/elements/1.1/"
   xmlns:cc="http://creativecommons.org/ns#"
   xmlns:rdf="http://www.w3.org/1999/02/22-rdf-syntax-ns#"
   xmlns:svg="http://www.w3.org/2000/svg"
   xmlns="http://www.w3.org/2000/svg"
   xmlns:sodipodi="http://sodipodi.sourceforge.net/DTD/sodipodi-0.dtd"
   xmlns:inkscape="http://www.inkscape.org/namespaces/inkscape"
   width="354.33072"
   height="70.866142"
   id="svg3003"
   version="1.1"
   inkscape:version="0.48.4 r9939"
   sodipodi:docname="optic_lever.dxf">
  <defs
     id="defs3" />
  <sodipodi:namedview
     inkscape:document-units="mm"
     id="base"
     pagecolor="#ffffff"
     bordercolor="#666666"
     borderopacity="1.0"
     inkscape:pageopacity="0.0"
     inkscape:pageshadow="2"
     inkscape:zoom="0.46210938"
     inkscape:cx="-124.2048"
     inkscape:cy="621.09796"
     inkscape:current-layer="layer1"
     showgrid="false"
     inkscape:window-width="1436"
     inkscape:window-height="877"
     inkscape:window-x="0"
     inkscape:window-y="19"
     inkscape:window-maximized="0"
     units="mm"
     fit-margin-top="0"
     fit-margin-left="0"
     fit-margin-right="0"
     fit-margin-bottom="0"
     showguides="false"
     inkscape:guide-bbox="true">
    <sodipodi:guide
       orientation="1,0"
       position="311.81102,128.91614"
       id="guide3070" />
    <sodipodi:guide
       orientation="1,0"
       position="304.72441,131.97733"
       id="guide3072" />
    <sodipodi:guide
       orientation="1,0"
       position="308.26772,102.52152"
       id="guide3076" />
    <sodipodi:guide
       orientation="0,1"
       position="297.14286,46.062992"
       id="guide3078" />
  </sodipodi:namedview>
  <metadata
     id="metadata4">
    <rdf:RDF>
      <cc:Work
         rdf:about="">
        <dc:format>image/svg+xml</dc:format>
        <dc:type
           rdf:resource="http://purl.org/dc/dcmitype/StillImage" />
        <dc:title></dc:title>
      </cc:Work>
    </rdf:RDF>
  </metadata>
  <g
     inkscape:label="Layer 1"
     inkscape:groupmode="layer"
     id="layer1"
     transform="translate(-17.311918,-7.700604)">
    <g
       id="g3145">
      <path
         sodipodi:nodetypes="sccccccccccccssssss"
         inkscape:connector-curvature="0"
         id="rect3009"
         d="m 52.744989,7.700604 265.378651,0.1352494 2.18575,3.2078496 0.56275,3.343099 0.41662,1.15252 3.79923,27.490797 7.81109,1.625808 0.49328,-4.830828 -3.61907,-2.153026 -2.97564,-18.984919 0.11073,-6.934814 0.44291,-1.15252 1.77165,-2.899216 7.08663,0 c 19.62992,0 35.43307,15.80315 35.43307,35.433071 0,19.629922 -15.80315,35.433071 -35.43307,35.433071 l -283.464581,0 c -19.629921,0 -35.433071,-15.803149 -35.433071,-35.433071 0,-19.629921 15.80315,-35.433071 35.433071,-35.433071 z"
         style="color:#000000;fill:#008000;fill-opacity:0.58704451;fill-rule:evenodd;stroke:none;stroke-width:7.08661413;marker:none;visibility:visible;display:inline;overflow:visible;enable-background:accumulate" />
      <path
         sodipodi:type="arc"
         style="color:#000000;fill:#008000;fill-opacity:0.58704451;fill-rule:evenodd;stroke:none;stroke-width:7.08661413;marker:none;visibility:visible;display:inline;overflow:visible;enable-background:accumulate"
         id="path3013"
         sodipodi:cx="20.016907"
         sodipodi:cy="-74.535538"
         sodipodi:rx="11.360947"
         sodipodi:ry="10.278952"
         d="m 31.377853,-74.535538 a 11.360947,10.278952 0 1 1 -22.7218929,0 11.360947,10.278952 0 1 1 22.7218929,0 z"
         transform="matrix(0.62376969,0,0,0.68942967,181.99134,94.697851)" />
      <path
         sodipodi:type="arc"
         style="color:#000000;fill:#008000;fill-opacity:0.58704451;fill-rule:evenodd;stroke:none;stroke-width:7.08661413;marker:none;visibility:visible;display:inline;overflow:visible;enable-background:accumulate"
         id="path3068"
         sodipodi:cx="20.016907"
         sodipodi:cy="-74.535538"
         sodipodi:rx="11.360947"
         sodipodi:ry="10.278952"
         d="m 31.377853,-74.535538 a 11.360947,10.278952 0 1 1 -22.7218929,0 11.360947,10.278952 0 1 1 22.7218929,0 z"
         transform="matrix(0.62376969,0,0,0.68942967,46.459835,94.697851)" />
    </g>
    <g
       id="g3150"
       transform="translate(0.88582675,-74.409447)">
      <path
         style="color:#000000;fill:#008000;fill-opacity:0.58704451;fill-rule:evenodd;stroke:none;stroke-width:7.08661413;marker:none;visibility:visible;display:inline;overflow:visible;enable-background:accumulate"
         d="m 52.744989,7.700604 265.378651,0.1352494 2.18575,3.2078496 0.56275,3.343099 0.41662,1.15252 3.79923,27.490797 7.81109,1.625808 0.49328,-4.830828 -3.61907,-2.153026 -2.97564,-18.984919 0.11073,-6.934814 0.44291,-1.15252 1.77165,-2.899216 7.08663,0 c 19.62992,0 35.43307,15.80315 35.43307,35.433071 0,19.629922 -15.80315,35.433071 -35.43307,35.433071 l -283.464581,0 c -19.629921,0 -35.433071,-15.803149 -35.433071,-35.433071 0,-19.629921 15.80315,-35.433071 35.433071,-35.433071 z"
         id="path3152"
         inkscape:connector-curvature="0"
         sodipodi:nodetypes="sccccccccccccssssss" />
      <path
         transform="matrix(0.62376969,0,0,0.68942967,181.99134,94.697851)"
         d="m 31.377853,-74.535538 c 0,5.676909 -5.086469,10.278952 -11.360946,10.278952 -6.274478,0 -11.3609469,-4.602043 -11.3609469,-10.278952 0,-5.676908 5.0864689,-10.278951 11.3609469,-10.278951 6.274477,0 11.360946,4.602043 11.360946,10.278951 z"
         sodipodi:ry="10.278952"
         sodipodi:rx="11.360947"
         sodipodi:cy="-74.535538"
         sodipodi:cx="20.016907"
         id="path3154"
         style="color:#000000;fill:#008000;fill-opacity:0.58704451;fill-rule:evenodd;stroke:none;stroke-width:7.08661413;marker:none;visibility:visible;display:inline;overflow:visible;enable-background:accumulate"
         sodipodi:type="arc" />
      <path
         transform="matrix(0.62376969,0,0,0.68942967,46.459835,94.697851)"
         d="m 31.377853,-74.535538 c 0,5.676909 -5.086469,10.278952 -11.360946,10.278952 -6.274478,0 -11.3609469,-4.602043 -11.3609469,-10.278952 0,-5.676908 5.0864689,-10.278951 11.3609469,-10.278951 6.274477,0 11.360946,4.602043 11.360946,10.278951 z"
         sodipodi:ry="10.278952"
         sodipodi:rx="11.360947"
         sodipodi:cy="-74.535538"
         sodipodi:cx="20.016907"
         id="path3156"
         style="color:#000000;fill:#008000;fill-opacity:0.58704451;fill-rule:evenodd;stroke:none;stroke-width:7.08661413;marker:none;visibility:visible;display:inline;overflow:visible;enable-background:accumulate"
         sodipodi:type="arc" />
    </g>
    <g
       transform="translate(1.7716535,-148.81889)"
       id="g3158">
      <path
         sodipodi:nodetypes="sccccccccccccssssss"
         inkscape:connector-curvature="0"
         id="path3160"
         d="m 52.744989,7.700604 265.378651,0.1352494 2.18575,3.2078496 0.56275,3.343099 0.41662,1.15252 3.79923,27.490797 7.81109,1.625808 0.49328,-4.830828 -3.61907,-2.153026 -2.97564,-18.984919 0.11073,-6.934814 0.44291,-1.15252 1.77165,-2.899216 7.08663,0 c 19.62992,0 35.43307,15.80315 35.43307,35.433071 0,19.629922 -15.80315,35.433071 -35.43307,35.433071 l -283.464581,0 c -19.629921,0 -35.433071,-15.803149 -35.433071,-35.433071 0,-19.629921 15.80315,-35.433071 35.433071,-35.433071 z"
         style="color:#000000;fill:#008000;fill-opacity:0.58704451;fill-rule:evenodd;stroke:none;stroke-width:7.08661413;marker:none;visibility:visible;display:inline;overflow:visible;enable-background:accumulate" />
      <path
         sodipodi:type="arc"
         style="color:#000000;fill:#008000;fill-opacity:0.58704451;fill-rule:evenodd;stroke:none;stroke-width:7.08661413;marker:none;visibility:visible;display:inline;overflow:visible;enable-background:accumulate"
         id="path3162"
         sodipodi:cx="20.016907"
         sodipodi:cy="-74.535538"
         sodipodi:rx="11.360947"
         sodipodi:ry="10.278952"
         d="m 31.377853,-74.535538 c 0,5.676909 -5.086469,10.278952 -11.360946,10.278952 -6.274478,0 -11.3609469,-4.602043 -11.3609469,-10.278952 0,-5.676908 5.0864689,-10.278951 11.3609469,-10.278951 6.274477,0 11.360946,4.602043 11.360946,10.278951 z"
         transform="matrix(0.62376969,0,0,0.68942967,181.99134,94.697851)" />
      <path
         sodipodi:type="arc"
         style="color:#000000;fill:#008000;fill-opacity:0.58704451;fill-rule:evenodd;stroke:none;stroke-width:7.08661413;marker:none;visibility:visible;display:inline;overflow:visible;enable-background:accumulate"
         id="path3164"
         sodipodi:cx="20.016907"
         sodipodi:cy="-74.535538"
         sodipodi:rx="11.360947"
         sodipodi:ry="10.278952"
         d="m 31.377853,-74.535538 c 0,5.676909 -5.086469,10.278952 -11.360946,10.278952 -6.274478,0 -11.3609469,-4.602043 -11.3609469,-10.278952 0,-5.676908 5.0864689,-10.278951 11.3609469,-10.278951 6.274477,0 11.360946,4.602043 11.360946,10.278951 z"
         transform="matrix(0.62376969,0,0,0.68942967,46.459835,94.697851)" />
    </g>
    <g
       id="g3166"
       transform="translate(2.6574802,-223.22834)">
      <path
         style="color:#000000;fill:#008000;fill-opacity:0.58704451;fill-rule:evenodd;stroke:none;stroke-width:7.08661413;marker:none;visibility:visible;display:inline;overflow:visible;enable-background:accumulate"
         d="m 52.744989,7.700604 265.378651,0.1352494 2.18575,3.2078496 0.56275,3.343099 0.41662,1.15252 3.79923,27.490797 7.81109,1.625808 0.49328,-4.830828 -3.61907,-2.153026 -2.97564,-18.984919 0.11073,-6.934814 0.44291,-1.15252 1.77165,-2.899216 7.08663,0 c 19.62992,0 35.43307,15.80315 35.43307,35.433071 0,19.629922 -15.80315,35.433071 -35.43307,35.433071 l -283.464581,0 c -19.629921,0 -35.433071,-15.803149 -35.433071,-35.433071 0,-19.629921 15.80315,-35.433071 35.433071,-35.433071 z"
         id="path3168"
         inkscape:connector-curvature="0"
         sodipodi:nodetypes="sccccccccccccssssss" />
      <path
         transform="matrix(0.62376969,0,0,0.68942967,181.99134,94.697851)"
         d="m 31.377853,-74.535538 c 0,5.676909 -5.086469,10.278952 -11.360946,10.278952 -6.274478,0 -11.3609469,-4.602043 -11.3609469,-10.278952 0,-5.676908 5.0864689,-10.278951 11.3609469,-10.278951 6.274477,0 11.360946,4.602043 11.360946,10.278951 z"
         sodipodi:ry="10.278952"
         sodipodi:rx="11.360947"
         sodipodi:cy="-74.535538"
         sodipodi:cx="20.016907"
         id="path3170"
         style="color:#000000;fill:#008000;fill-opacity:0.58704451;fill-rule:evenodd;stroke:none;stroke-width:7.08661413;marker:none;visibility:visible;display:inline;overflow:visible;enable-background:accumulate"
         sodipodi:type="arc" />
      <path
         transform="matrix(0.62376969,0,0,0.68942967,46.459835,94.697851)"
         d="m 31.377853,-74.535538 c 0,5.676909 -5.086469,10.278952 -11.360946,10.278952 -6.274478,0 -11.3609469,-4.602043 -11.3609469,-10.278952 0,-5.676908 5.0864689,-10.278951 11.3609469,-10.278951 6.274477,0 11.360946,4.602043 11.360946,10.278951 z"
         sodipodi:ry="10.278952"
         sodipodi:rx="11.360947"
         sodipodi:cy="-74.535538"
         sodipodi:cx="20.016907"
         id="path3172"
         style="color:#000000;fill:#008000;fill-opacity:0.58704451;fill-rule:evenodd;stroke:none;stroke-width:7.08661413;marker:none;visibility:visible;display:inline;overflow:visible;enable-background:accumulate"
         sodipodi:type="arc" />
    </g>
    <g
       transform="translate(3.5433069,-297.63779)"
       id="g3174">
      <path
         sodipodi:nodetypes="sccccccccccccssssss"
         inkscape:connector-curvature="0"
         id="path3176"
         d="m 52.744989,7.700604 265.378651,0.1352494 2.18575,3.2078496 0.56275,3.343099 0.41662,1.15252 3.79923,27.490797 7.81109,1.625808 0.49328,-4.830828 -3.61907,-2.153026 -2.97564,-18.984919 0.11073,-6.934814 0.44291,-1.15252 1.77165,-2.899216 7.08663,0 c 19.62992,0 35.43307,15.80315 35.43307,35.433071 0,19.629922 -15.80315,35.433071 -35.43307,35.433071 l -283.464581,0 c -19.629921,0 -35.433071,-15.803149 -35.433071,-35.433071 0,-19.629921 15.80315,-35.433071 35.433071,-35.433071 z"
         style="color:#000000;fill:#008000;fill-opacity:0.58704451;fill-rule:evenodd;stroke:none;stroke-width:7.08661413;marker:none;visibility:visible;display:inline;overflow:visible;enable-background:accumulate" />
      <path
         sodipodi:type="arc"
         style="color:#000000;fill:#008000;fill-opacity:0.58704451;fill-rule:evenodd;stroke:none;stroke-width:7.08661413;marker:none;visibility:visible;display:inline;overflow:visible;enable-background:accumulate"
         id="path3178"
         sodipodi:cx="20.016907"
         sodipodi:cy="-74.535538"
         sodipodi:rx="11.360947"
         sodipodi:ry="10.278952"
         d="m 31.377853,-74.535538 c 0,5.676909 -5.086469,10.278952 -11.360946,10.278952 -6.274478,0 -11.3609469,-4.602043 -11.3609469,-10.278952 0,-5.676908 5.0864689,-10.278951 11.3609469,-10.278951 6.274477,0 11.360946,4.602043 11.360946,10.278951 z"
         transform="matrix(0.62376969,0,0,0.68942967,181.99134,94.697851)" />
      <path
         sodipodi:type="arc"
         style="color:#000000;fill:#008000;fill-opacity:0.58704451;fill-rule:evenodd;stroke:none;stroke-width:7.08661413;marker:none;visibility:visible;display:inline;overflow:visible;enable-background:accumulate"
         id="path3180"
         sodipodi:cx="20.016907"
         sodipodi:cy="-74.535538"
         sodipodi:rx="11.360947"
         sodipodi:ry="10.278952"
         d="m 31.377853,-74.535538 c 0,5.676909 -5.086469,10.278952 -11.360946,10.278952 -6.274478,0 -11.3609469,-4.602043 -11.3609469,-10.278952 0,-5.676908 5.0864689,-10.278951 11.3609469,-10.278951 6.274477,0 11.360946,4.602043 11.360946,10.278951 z"
         transform="matrix(0.62376969,0,0,0.68942967,46.459835,94.697851)" />
    </g>
    <g
       id="g3182"
       transform="translate(4.4291337,-372.04724)">
      <path
         style="color:#000000;fill:#008000;fill-opacity:0.58704451;fill-rule:evenodd;stroke:none;stroke-width:7.08661413;marker:none;visibility:visible;display:inline;overflow:visible;enable-background:accumulate"
         d="m 52.744989,7.700604 265.378651,0.1352494 2.18575,3.2078496 0.56275,3.343099 0.41662,1.15252 3.79923,27.490797 7.81109,1.625808 0.49328,-4.830828 -3.61907,-2.153026 -2.97564,-18.984919 0.11073,-6.934814 0.44291,-1.15252 1.77165,-2.899216 7.08663,0 c 19.62992,0 35.43307,15.80315 35.43307,35.433071 0,19.629922 -15.80315,35.433071 -35.43307,35.433071 l -283.464581,0 c -19.629921,0 -35.433071,-15.803149 -35.433071,-35.433071 0,-19.629921 15.80315,-35.433071 35.433071,-35.433071 z"
         id="path3184"
         inkscape:connector-curvature="0"
         sodipodi:nodetypes="sccccccccccccssssss" />
      <path
         transform="matrix(0.62376969,0,0,0.68942967,181.99134,94.697851)"
         d="m 31.377853,-74.535538 c 0,5.676909 -5.086469,10.278952 -11.360946,10.278952 -6.274478,0 -11.3609469,-4.602043 -11.3609469,-10.278952 0,-5.676908 5.0864689,-10.278951 11.3609469,-10.278951 6.274477,0 11.360946,4.602043 11.360946,10.278951 z"
         sodipodi:ry="10.278952"
         sodipodi:rx="11.360947"
         sodipodi:cy="-74.535538"
         sodipodi:cx="20.016907"
         id="path3186"
         style="color:#000000;fill:#008000;fill-opacity:0.58704451;fill-rule:evenodd;stroke:none;stroke-width:7.08661413;marker:none;visibility:visible;display:inline;overflow:visible;enable-background:accumulate"
         sodipodi:type="arc" />
      <path
         transform="matrix(0.62376969,0,0,0.68942967,46.459835,94.697851)"
         d="m 31.377853,-74.535538 c 0,5.676909 -5.086469,10.278952 -11.360946,10.278952 -6.274478,0 -11.3609469,-4.602043 -11.3609469,-10.278952 0,-5.676908 5.0864689,-10.278951 11.3609469,-10.278951 6.274477,0 11.360946,4.602043 11.360946,10.278951 z"
         sodipodi:ry="10.278952"
         sodipodi:rx="11.360947"
         sodipodi:cy="-74.535538"
         sodipodi:cx="20.016907"
         id="path3188"
         style="color:#000000;fill:#008000;fill-opacity:0.58704451;fill-rule:evenodd;stroke:none;stroke-width:7.08661413;marker:none;visibility:visible;display:inline;overflow:visible;enable-background:accumulate"
         sodipodi:type="arc" />
    </g>
    <g
       transform="translate(5.3149605,-446.45669)"
       id="g3190">
      <path
         sodipodi:nodetypes="sccccccccccccssssss"
         inkscape:connector-curvature="0"
         id="path3192"
         d="m 52.744989,7.700604 265.378651,0.1352494 2.18575,3.2078496 0.56275,3.343099 0.41662,1.15252 3.79923,27.490797 7.81109,1.625808 0.49328,-4.830828 -3.61907,-2.153026 -2.97564,-18.984919 0.11073,-6.934814 0.44291,-1.15252 1.77165,-2.899216 7.08663,0 c 19.62992,0 35.43307,15.80315 35.43307,35.433071 0,19.629922 -15.80315,35.433071 -35.43307,35.433071 l -283.464581,0 c -19.629921,0 -35.433071,-15.803149 -35.433071,-35.433071 0,-19.629921 15.80315,-35.433071 35.433071,-35.433071 z"
         style="color:#000000;fill:#008000;fill-opacity:0.58704451;fill-rule:evenodd;stroke:none;stroke-width:7.08661413;marker:none;visibility:visible;display:inline;overflow:visible;enable-background:accumulate" />
      <path
         sodipodi:type="arc"
         style="color:#000000;fill:#008000;fill-opacity:0.58704451;fill-rule:evenodd;stroke:none;stroke-width:7.08661413;marker:none;visibility:visible;display:inline;overflow:visible;enable-background:accumulate"
         id="path3194"
         sodipodi:cx="20.016907"
         sodipodi:cy="-74.535538"
         sodipodi:rx="11.360947"
         sodipodi:ry="10.278952"
         d="m 31.377853,-74.535538 c 0,5.676909 -5.086469,10.278952 -11.360946,10.278952 -6.274478,0 -11.3609469,-4.602043 -11.3609469,-10.278952 0,-5.676908 5.0864689,-10.278951 11.3609469,-10.278951 6.274477,0 11.360946,4.602043 11.360946,10.278951 z"
         transform="matrix(0.62376969,0,0,0.68942967,181.99134,94.697851)" />
      <path
         sodipodi:type="arc"
         style="color:#000000;fill:#008000;fill-opacity:0.58704451;fill-rule:evenodd;stroke:none;stroke-width:7.08661413;marker:none;visibility:visible;display:inline;overflow:visible;enable-background:accumulate"
         id="path3196"
         sodipodi:cx="20.016907"
         sodipodi:cy="-74.535538"
         sodipodi:rx="11.360947"
         sodipodi:ry="10.278952"
         d="m 31.377853,-74.535538 c 0,5.676909 -5.086469,10.278952 -11.360946,10.278952 -6.274478,0 -11.3609469,-4.602043 -11.3609469,-10.278952 0,-5.676908 5.0864689,-10.278951 11.3609469,-10.278951 6.274477,0 11.360946,4.602043 11.360946,10.278951 z"
         transform="matrix(0.62376969,0,0,0.68942967,46.459835,94.697851)" />
    </g>
    <g
       id="g3198"
       transform="translate(6.2007872,-520.86614)">
      <path
         style="color:#000000;fill:#008000;fill-opacity:0.58704451;fill-rule:evenodd;stroke:none;stroke-width:7.08661413;marker:none;visibility:visible;display:inline;overflow:visible;enable-background:accumulate"
         d="m 52.744989,7.700604 265.378651,0.1352494 2.18575,3.2078496 0.56275,3.343099 0.41662,1.15252 3.79923,27.490797 7.81109,1.625808 0.49328,-4.830828 -3.61907,-2.153026 -2.97564,-18.984919 0.11073,-6.934814 0.44291,-1.15252 1.77165,-2.899216 7.08663,0 c 19.62992,0 35.43307,15.80315 35.43307,35.433071 0,19.629922 -15.80315,35.433071 -35.43307,35.433071 l -283.464581,0 c -19.629921,0 -35.433071,-15.803149 -35.433071,-35.433071 0,-19.629921 15.80315,-35.433071 35.433071,-35.433071 z"
         id="path3200"
         inkscape:connector-curvature="0"
         sodipodi:nodetypes="sccccccccccccssssss" />
      <path
         transform="matrix(0.62376969,0,0,0.68942967,181.99134,94.697851)"
         d="m 31.377853,-74.535538 c 0,5.676909 -5.086469,10.278952 -11.360946,10.278952 -6.274478,0 -11.3609469,-4.602043 -11.3609469,-10.278952 0,-5.676908 5.0864689,-10.278951 11.3609469,-10.278951 6.274477,0 11.360946,4.602043 11.360946,10.278951 z"
         sodipodi:ry="10.278952"
         sodipodi:rx="11.360947"
         sodipodi:cy="-74.535538"
         sodipodi:cx="20.016907"
         id="path3202"
         style="color:#000000;fill:#008000;fill-opacity:0.58704451;fill-rule:evenodd;stroke:none;stroke-width:7.08661413;marker:none;visibility:visible;display:inline;overflow:visible;enable-background:accumulate"
         sodipodi:type="arc" />
      <path
         transform="matrix(0.62376969,0,0,0.68942967,46.459835,94.697851)"
         d="m 31.377853,-74.535538 c 0,5.676909 -5.086469,10.278952 -11.360946,10.278952 -6.274478,0 -11.3609469,-4.602043 -11.3609469,-10.278952 0,-5.676908 5.0864689,-10.278951 11.3609469,-10.278951 6.274477,0 11.360946,4.602043 11.360946,10.278951 z"
         sodipodi:ry="10.278952"
         sodipodi:rx="11.360947"
         sodipodi:cy="-74.535538"
         sodipodi:cx="20.016907"
         id="path3204"
         style="color:#000000;fill:#008000;fill-opacity:0.58704451;fill-rule:evenodd;stroke:none;stroke-width:7.08661413;marker:none;visibility:visible;display:inline;overflow:visible;enable-background:accumulate"
         sodipodi:type="arc" />
    </g>
    <g
       transform="translate(7.0866139,-595.27559)"
       id="g3206">
      <path
         sodipodi:nodetypes="sccccccccccccssssss"
         inkscape:connector-curvature="0"
         id="path3208"
         d="m 52.744989,7.700604 265.378651,0.1352494 2.18575,3.2078496 0.56275,3.343099 0.41662,1.15252 3.79923,27.490797 7.81109,1.625808 0.49328,-4.830828 -3.61907,-2.153026 -2.97564,-18.984919 0.11073,-6.934814 0.44291,-1.15252 1.77165,-2.899216 7.08663,0 c 19.62992,0 35.43307,15.80315 35.43307,35.433071 0,19.629922 -15.80315,35.433071 -35.43307,35.433071 l -283.464581,0 c -19.629921,0 -35.433071,-15.803149 -35.433071,-35.433071 0,-19.629921 15.80315,-35.433071 35.433071,-35.433071 z"
         style="color:#000000;fill:#008000;fill-opacity:0.58704451;fill-rule:evenodd;stroke:none;stroke-width:7.08661413;marker:none;visibility:visible;display:inline;overflow:visible;enable-background:accumulate" />
      <path
         sodipodi:type="arc"
         style="color:#000000;fill:#008000;fill-opacity:0.58704451;fill-rule:evenodd;stroke:none;stroke-width:7.08661413;marker:none;visibility:visible;display:inline;overflow:visible;enable-background:accumulate"
         id="path3210"
         sodipodi:cx="20.016907"
         sodipodi:cy="-74.535538"
         sodipodi:rx="11.360947"
         sodipodi:ry="10.278952"
         d="m 31.377853,-74.535538 c 0,5.676909 -5.086469,10.278952 -11.360946,10.278952 -6.274478,0 -11.3609469,-4.602043 -11.3609469,-10.278952 0,-5.676908 5.0864689,-10.278951 11.3609469,-10.278951 6.274477,0 11.360946,4.602043 11.360946,10.278951 z"
         transform="matrix(0.62376969,0,0,0.68942967,181.99134,94.697851)" />
      <path
         sodipodi:type="arc"
         style="color:#000000;fill:#008000;fill-opacity:0.58704451;fill-rule:evenodd;stroke:none;stroke-width:7.08661413;marker:none;visibility:visible;display:inline;overflow:visible;enable-background:accumulate"
         id="path3212"
         sodipodi:cx="20.016907"
         sodipodi:cy="-74.535538"
         sodipodi:rx="11.360947"
         sodipodi:ry="10.278952"
         d="m 31.377853,-74.535538 c 0,5.676909 -5.086469,10.278952 -11.360946,10.278952 -6.274478,0 -11.3609469,-4.602043 -11.3609469,-10.278952 0,-5.676908 5.0864689,-10.278951 11.3609469,-10.278951 6.274477,0 11.360946,4.602043 11.360946,10.278951 z"
         transform="matrix(0.62376969,0,0,0.68942967,46.459835,94.697851)" />
    </g>
    <g
       id="g3214"
       transform="translate(7.9724406,-669.68504)">
      <path
         style="color:#000000;fill:#008000;fill-opacity:0.58704451;fill-rule:evenodd;stroke:none;stroke-width:7.08661413;marker:none;visibility:visible;display:inline;overflow:visible;enable-background:accumulate"
         d="m 52.744989,7.700604 265.378651,0.1352494 2.18575,3.2078496 0.56275,3.343099 0.41662,1.15252 3.79923,27.490797 7.81109,1.625808 0.49328,-4.830828 -3.61907,-2.153026 -2.97564,-18.984919 0.11073,-6.934814 0.44291,-1.15252 1.77165,-2.899216 7.08663,0 c 19.62992,0 35.43307,15.80315 35.43307,35.433071 0,19.629922 -15.80315,35.433071 -35.43307,35.433071 l -283.464581,0 c -19.629921,0 -35.433071,-15.803149 -35.433071,-35.433071 0,-19.629921 15.80315,-35.433071 35.433071,-35.433071 z"
         id="path3216"
         inkscape:connector-curvature="0"
         sodipodi:nodetypes="sccccccccccccssssss" />
      <path
         transform="matrix(0.62376969,0,0,0.68942967,181.99134,94.697851)"
         d="m 31.377853,-74.535538 c 0,5.676909 -5.086469,10.278952 -11.360946,10.278952 -6.274478,0 -11.3609469,-4.602043 -11.3609469,-10.278952 0,-5.676908 5.0864689,-10.278951 11.3609469,-10.278951 6.274477,0 11.360946,4.602043 11.360946,10.278951 z"
         sodipodi:ry="10.278952"
         sodipodi:rx="11.360947"
         sodipodi:cy="-74.535538"
         sodipodi:cx="20.016907"
         id="path3218"
         style="color:#000000;fill:#008000;fill-opacity:0.58704451;fill-rule:evenodd;stroke:none;stroke-width:7.08661413;marker:none;visibility:visible;display:inline;overflow:visible;enable-background:accumulate"
         sodipodi:type="arc" />
      <path
         transform="matrix(0.62376969,0,0,0.68942967,46.459835,94.697851)"
         d="m 31.377853,-74.535538 c 0,5.676909 -5.086469,10.278952 -11.360946,10.278952 -6.274478,0 -11.3609469,-4.602043 -11.3609469,-10.278952 0,-5.676908 5.0864689,-10.278951 11.3609469,-10.278951 6.274477,0 11.360946,4.602043 11.360946,10.278951 z"
         sodipodi:ry="10.278952"
         sodipodi:rx="11.360947"
         sodipodi:cy="-74.535538"
         sodipodi:cx="20.016907"
         id="path3220"
         style="color:#000000;fill:#008000;fill-opacity:0.58704451;fill-rule:evenodd;stroke:none;stroke-width:7.08661413;marker:none;visibility:visible;display:inline;overflow:visible;enable-background:accumulate"
         sodipodi:type="arc" />
    </g>
    <g
       transform="translate(8.8582673,-744.09449)"
       id="g3222">
      <path
         sodipodi:nodetypes="sccccccccccccssssss"
         inkscape:connector-curvature="0"
         id="path3224"
         d="m 52.744989,7.700604 265.378651,0.1352494 2.18575,3.2078496 0.56275,3.343099 0.41662,1.15252 3.79923,27.490797 7.81109,1.625808 0.49328,-4.830828 -3.61907,-2.153026 -2.97564,-18.984919 0.11073,-6.934814 0.44291,-1.15252 1.77165,-2.899216 7.08663,0 c 19.62992,0 35.43307,15.80315 35.43307,35.433071 0,19.629922 -15.80315,35.433071 -35.43307,35.433071 l -283.464581,0 c -19.629921,0 -35.433071,-15.803149 -35.433071,-35.433071 0,-19.629921 15.80315,-35.433071 35.433071,-35.433071 z"
         style="color:#000000;fill:#008000;fill-opacity:0.58704451;fill-rule:evenodd;stroke:none;stroke-width:7.08661413;marker:none;visibility:visible;display:inline;overflow:visible;enable-background:accumulate" />
      <path
         sodipodi:type="arc"
         style="color:#000000;fill:#008000;fill-opacity:0.58704451;fill-rule:evenodd;stroke:none;stroke-width:7.08661413;marker:none;visibility:visible;display:inline;overflow:visible;enable-background:accumulate"
         id="path3226"
         sodipodi:cx="20.016907"
         sodipodi:cy="-74.535538"
         sodipodi:rx="11.360947"
         sodipodi:ry="10.278952"
         d="m 31.377853,-74.535538 c 0,5.676909 -5.086469,10.278952 -11.360946,10.278952 -6.274478,0 -11.3609469,-4.602043 -11.3609469,-10.278952 0,-5.676908 5.0864689,-10.278951 11.3609469,-10.278951 6.274477,0 11.360946,4.602043 11.360946,10.278951 z"
         transform="matrix(0.62376969,0,0,0.68942967,181.99134,94.697851)" />
      <path
         sodipodi:type="arc"
         style="color:#000000;fill:#008000;fill-opacity:0.58704451;fill-rule:evenodd;stroke:none;stroke-width:7.08661413;marker:none;visibility:visible;display:inline;overflow:visible;enable-background:accumulate"
         id="path3228"
         sodipodi:cx="20.016907"
         sodipodi:cy="-74.535538"
         sodipodi:rx="11.360947"
         sodipodi:ry="10.278952"
         d="m 31.377853,-74.535538 c 0,5.676909 -5.086469,10.278952 -11.360946,10.278952 -6.274478,0 -11.3609469,-4.602043 -11.3609469,-10.278952 0,-5.676908 5.0864689,-10.278951 11.3609469,-10.278951 6.274477,0 11.360946,4.602043 11.360946,10.278951 z"
         transform="matrix(0.62376969,0,0,0.68942967,46.459835,94.697851)" />
    </g>
    <g
       id="g3230"
       transform="translate(9.744094,-818.50394)">
      <path
         style="color:#000000;fill:#008000;fill-opacity:0.58704451;fill-rule:evenodd;stroke:none;stroke-width:7.08661413;marker:none;visibility:visible;display:inline;overflow:visible;enable-background:accumulate"
         d="m 52.744989,7.700604 265.378651,0.1352494 2.18575,3.2078496 0.56275,3.343099 0.41662,1.15252 3.79923,27.490797 7.81109,1.625808 0.49328,-4.830828 -3.61907,-2.153026 -2.97564,-18.984919 0.11073,-6.934814 0.44291,-1.15252 1.77165,-2.899216 7.08663,0 c 19.62992,0 35.43307,15.80315 35.43307,35.433071 0,19.629922 -15.80315,35.433071 -35.43307,35.433071 l -283.464581,0 c -19.629921,0 -35.433071,-15.803149 -35.433071,-35.433071 0,-19.629921 15.80315,-35.433071 35.433071,-35.433071 z"
         id="path3232"
         inkscape:connector-curvature="0"
         sodipodi:nodetypes="sccccccccccccssssss" />
      <path
         transform="matrix(0.62376969,0,0,0.68942967,181.99134,94.697851)"
         d="m 31.377853,-74.535538 c 0,5.676909 -5.086469,10.278952 -11.360946,10.278952 -6.274478,0 -11.3609469,-4.602043 -11.3609469,-10.278952 0,-5.676908 5.0864689,-10.278951 11.3609469,-10.278951 6.274477,0 11.360946,4.602043 11.360946,10.278951 z"
         sodipodi:ry="10.278952"
         sodipodi:rx="11.360947"
         sodipodi:cy="-74.535538"
         sodipodi:cx="20.016907"
         id="path3234"
         style="color:#000000;fill:#008000;fill-opacity:0.58704451;fill-rule:evenodd;stroke:none;stroke-width:7.08661413;marker:none;visibility:visible;display:inline;overflow:visible;enable-background:accumulate"
         sodipodi:type="arc" />
      <path
         transform="matrix(0.62376969,0,0,0.68942967,46.459835,94.697851)"
         d="m 31.377853,-74.535538 c 0,5.676909 -5.086469,10.278952 -11.360946,10.278952 -6.274478,0 -11.3609469,-4.602043 -11.3609469,-10.278952 0,-5.676908 5.0864689,-10.278951 11.3609469,-10.278951 6.274477,0 11.360946,4.602043 11.360946,10.278951 z"
         sodipodi:ry="10.278952"
         sodipodi:rx="11.360947"
         sodipodi:cy="-74.535538"
         sodipodi:cx="20.016907"
         id="path3236"
         style="color:#000000;fill:#008000;fill-opacity:0.58704451;fill-rule:evenodd;stroke:none;stroke-width:7.08661413;marker:none;visibility:visible;display:inline;overflow:visible;enable-background:accumulate"
         sodipodi:type="arc" />
    </g>
    <g
       transform="translate(10.629921,-892.91339)"
       id="g3238">
      <path
         sodipodi:nodetypes="sccccccccccccssssss"
         inkscape:connector-curvature="0"
         id="path3240"
         d="m 52.744989,7.700604 265.378651,0.1352494 2.18575,3.2078496 0.56275,3.343099 0.41662,1.15252 3.79923,27.490797 7.81109,1.625808 0.49328,-4.830828 -3.61907,-2.153026 -2.97564,-18.984919 0.11073,-6.934814 0.44291,-1.15252 1.77165,-2.899216 7.08663,0 c 19.62992,0 35.43307,15.80315 35.43307,35.433071 0,19.629922 -15.80315,35.433071 -35.43307,35.433071 l -283.464581,0 c -19.629921,0 -35.433071,-15.803149 -35.433071,-35.433071 0,-19.629921 15.80315,-35.433071 35.433071,-35.433071 z"
         style="color:#000000;fill:#008000;fill-opacity:0.58704451;fill-rule:evenodd;stroke:none;stroke-width:7.08661413;marker:none;visibility:visible;display:inline;overflow:visible;enable-background:accumulate" />
      <path
         sodipodi:type="arc"
         style="color:#000000;fill:#008000;fill-opacity:0.58704451;fill-rule:evenodd;stroke:none;stroke-width:7.08661413;marker:none;visibility:visible;display:inline;overflow:visible;enable-background:accumulate"
         id="path3242"
         sodipodi:cx="20.016907"
         sodipodi:cy="-74.535538"
         sodipodi:rx="11.360947"
         sodipodi:ry="10.278952"
         d="m 31.377853,-74.535538 c 0,5.676909 -5.086469,10.278952 -11.360946,10.278952 -6.274478,0 -11.3609469,-4.602043 -11.3609469,-10.278952 0,-5.676908 5.0864689,-10.278951 11.3609469,-10.278951 6.274477,0 11.360946,4.602043 11.360946,10.278951 z"
         transform="matrix(0.62376969,0,0,0.68942967,181.99134,94.697851)" />
      <path
         sodipodi:type="arc"
         style="color:#000000;fill:#008000;fill-opacity:0.58704451;fill-rule:evenodd;stroke:none;stroke-width:7.08661413;marker:none;visibility:visible;display:inline;overflow:visible;enable-background:accumulate"
         id="path3244"
         sodipodi:cx="20.016907"
         sodipodi:cy="-74.535538"
         sodipodi:rx="11.360947"
         sodipodi:ry="10.278952"
         d="m 31.377853,-74.535538 c 0,5.676909 -5.086469,10.278952 -11.360946,10.278952 -6.274478,0 -11.3609469,-4.602043 -11.3609469,-10.278952 0,-5.676908 5.0864689,-10.278951 11.3609469,-10.278951 6.274477,0 11.360946,4.602043 11.360946,10.278951 z"
         transform="matrix(0.62376969,0,0,0.68942967,46.459835,94.697851)" />
    </g>
    <g
       id="g3246"
       transform="translate(11.515748,-967.32284)">
      <path
         style="color:#000000;fill:#008000;fill-opacity:0.58704451;fill-rule:evenodd;stroke:none;stroke-width:7.08661413;marker:none;visibility:visible;display:inline;overflow:visible;enable-background:accumulate"
         d="m 52.744989,7.700604 265.378651,0.1352494 2.18575,3.2078496 0.56275,3.343099 0.41662,1.15252 3.79923,27.490797 7.81109,1.625808 0.49328,-4.830828 -3.61907,-2.153026 -2.97564,-18.984919 0.11073,-6.934814 0.44291,-1.15252 1.77165,-2.899216 7.08663,0 c 19.62992,0 35.43307,15.80315 35.43307,35.433071 0,19.629922 -15.80315,35.433071 -35.43307,35.433071 l -283.464581,0 c -19.629921,0 -35.433071,-15.803149 -35.433071,-35.433071 0,-19.629921 15.80315,-35.433071 35.433071,-35.433071 z"
         id="path3248"
         inkscape:connector-curvature="0"
         sodipodi:nodetypes="sccccccccccccssssss" />
      <path
         transform="matrix(0.62376969,0,0,0.68942967,181.99134,94.697851)"
         d="m 31.377853,-74.535538 c 0,5.676909 -5.086469,10.278952 -11.360946,10.278952 -6.274478,0 -11.3609469,-4.602043 -11.3609469,-10.278952 0,-5.676908 5.0864689,-10.278951 11.3609469,-10.278951 6.274477,0 11.360946,4.602043 11.360946,10.278951 z"
         sodipodi:ry="10.278952"
         sodipodi:rx="11.360947"
         sodipodi:cy="-74.535538"
         sodipodi:cx="20.016907"
         id="path3250"
         style="color:#000000;fill:#008000;fill-opacity:0.58704451;fill-rule:evenodd;stroke:none;stroke-width:7.08661413;marker:none;visibility:visible;display:inline;overflow:visible;enable-background:accumulate"
         sodipodi:type="arc" />
      <path
         transform="matrix(0.62376969,0,0,0.68942967,46.459835,94.697851)"
         d="m 31.377853,-74.535538 c 0,5.676909 -5.086469,10.278952 -11.360946,10.278952 -6.274478,0 -11.3609469,-4.602043 -11.3609469,-10.278952 0,-5.676908 5.0864689,-10.278951 11.3609469,-10.278951 6.274477,0 11.360946,4.602043 11.360946,10.278951 z"
         sodipodi:ry="10.278952"
         sodipodi:rx="11.360947"
         sodipodi:cy="-74.535538"
         sodipodi:cx="20.016907"
         id="path3252"
         style="color:#000000;fill:#008000;fill-opacity:0.58704451;fill-rule:evenodd;stroke:none;stroke-width:7.08661413;marker:none;visibility:visible;display:inline;overflow:visible;enable-background:accumulate"
         sodipodi:type="arc" />
    </g>
    <g
       transform="translate(12.401575,-1041.7323)"
       id="g3254">
      <path
         sodipodi:nodetypes="sccccccccccccssssss"
         inkscape:connector-curvature="0"
         id="path3256"
         d="m 52.744989,7.700604 265.378651,0.1352494 2.18575,3.2078496 0.56275,3.343099 0.41662,1.15252 3.79923,27.490797 7.81109,1.625808 0.49328,-4.830828 -3.61907,-2.153026 -2.97564,-18.984919 0.11073,-6.934814 0.44291,-1.15252 1.77165,-2.899216 7.08663,0 c 19.62992,0 35.43307,15.80315 35.43307,35.433071 0,19.629922 -15.80315,35.433071 -35.43307,35.433071 l -283.464581,0 c -19.629921,0 -35.433071,-15.803149 -35.433071,-35.433071 0,-19.629921 15.80315,-35.433071 35.433071,-35.433071 z"
         style="color:#000000;fill:#008000;fill-opacity:0.58704451;fill-rule:evenodd;stroke:none;stroke-width:7.08661413;marker:none;visibility:visible;display:inline;overflow:visible;enable-background:accumulate" />
      <path
         sodipodi:type="arc"
         style="color:#000000;fill:#008000;fill-opacity:0.58704451;fill-rule:evenodd;stroke:none;stroke-width:7.08661413;marker:none;visibility:visible;display:inline;overflow:visible;enable-background:accumulate"
         id="path3258"
         sodipodi:cx="20.016907"
         sodipodi:cy="-74.535538"
         sodipodi:rx="11.360947"
         sodipodi:ry="10.278952"
         d="m 31.377853,-74.535538 c 0,5.676909 -5.086469,10.278952 -11.360946,10.278952 -6.274478,0 -11.3609469,-4.602043 -11.3609469,-10.278952 0,-5.676908 5.0864689,-10.278951 11.3609469,-10.278951 6.274477,0 11.360946,4.602043 11.360946,10.278951 z"
         transform="matrix(0.62376969,0,0,0.68942967,181.99134,94.697851)" />
      <path
         sodipodi:type="arc"
         style="color:#000000;fill:#008000;fill-opacity:0.58704451;fill-rule:evenodd;stroke:none;stroke-width:7.08661413;marker:none;visibility:visible;display:inline;overflow:visible;enable-background:accumulate"
         id="path3260"
         sodipodi:cx="20.016907"
         sodipodi:cy="-74.535538"
         sodipodi:rx="11.360947"
         sodipodi:ry="10.278952"
         d="m 31.377853,-74.535538 c 0,5.676909 -5.086469,10.278952 -11.360946,10.278952 -6.274478,0 -11.3609469,-4.602043 -11.3609469,-10.278952 0,-5.676908 5.0864689,-10.278951 11.3609469,-10.278951 6.274477,0 11.360946,4.602043 11.360946,10.278951 z"
         transform="matrix(0.62376969,0,0,0.68942967,46.459835,94.697851)" />
    </g>
  </g>
</svg>
