<?xml version="1.0" encoding="UTF-8" standalone="no"?>
<!-- Created with Inkscape (http://www.inkscape.org/) -->

<svg
   xmlns:dc="http://purl.org/dc/elements/1.1/"
   xmlns:cc="http://creativecommons.org/ns#"
   xmlns:rdf="http://www.w3.org/1999/02/22-rdf-syntax-ns#"
   xmlns:svg="http://www.w3.org/2000/svg"
   xmlns="http://www.w3.org/2000/svg"
   xmlns:sodipodi="http://sodipodi.sourceforge.net/DTD/sodipodi-0.dtd"
   xmlns:inkscape="http://www.inkscape.org/namespaces/inkscape"
   width="3011.811"
   height="1335.8268"
   id="svg2"
   version="1.1"
   inkscape:version="0.48.4 r9939"
   sodipodi:docname="pressure_cladding.svg">
  <defs
     id="defs4" />
  <sodipodi:namedview
     id="base"
     pagecolor="#ffffff"
     bordercolor="#666666"
     borderopacity="1.0"
     inkscape:pageopacity="0.0"
     inkscape:pageshadow="2"
     inkscape:zoom="0.094674557"
     inkscape:cx="1193.6175"
     inkscape:cy="1137.0449"
     inkscape:document-units="mm"
     inkscape:current-layer="layer2"
     showgrid="false"
     units="mm"
     fit-margin-top="0"
     fit-margin-left="0"
     fit-margin-right="0"
     fit-margin-bottom="0"
     showguides="true"
     inkscape:guide-bbox="true"
     inkscape:window-width="720"
     inkscape:window-height="877"
     inkscape:window-x="720"
     inkscape:window-y="19"
     inkscape:window-maximized="0" />
  <metadata
     id="metadata7">
    <rdf:RDF>
      <cc:Work
         rdf:about="">
        <dc:format>image/svg+xml</dc:format>
        <dc:type
           rdf:resource="http://purl.org/dc/dcmitype/StillImage" />
        <dc:title></dc:title>
      </cc:Work>
    </rdf:RDF>
  </metadata>
  <g
     inkscape:label="Context"
     inkscape:groupmode="layer"
     id="layer1"
     transform="translate(0,283.46524)"
     style="display:none">
    <rect
       style="color:#000000;fill:#800080;fill-opacity:0.58704451;fill-rule:evenodd;stroke:none;stroke-width:7.08661413;marker:none;visibility:visible;display:inline;overflow:visible;enable-background:accumulate"
       id="rect2985"
       width="3011.811"
       height="1335.8268"
       x="0"
       y="-283.46524" />
    <rect
       style="color:#000000;fill:#ff0000;fill-opacity:0.58704451;fill-rule:evenodd;stroke:none;stroke-width:7.08661413;marker:none;visibility:visible;display:inline;overflow:visible;enable-background:accumulate"
       id="rect2987"
       width="1257.874"
       height="839.76379"
       x="88.582672"
       y="-194.88257" />
    <rect
       y="184.25133"
       x="1346.4567"
       height="531.49603"
       width="389.76379"
       id="rect2991"
       style="color:#000000;fill:#ff0000;fill-opacity:0.58704451;fill-rule:evenodd;stroke:none;stroke-width:7.08661413;marker:none;visibility:visible;display:inline;overflow:visible;enable-background:accumulate" />
    <path
       sodipodi:type="arc"
       style="color:#000000;fill:#2b0000;fill-opacity:0.58704451;fill-rule:evenodd;stroke:none;stroke-width:7.08661413;marker:none;visibility:visible;display:inline;overflow:visible;enable-background:accumulate"
       id="path2989"
       sodipodi:cx="-383.02621"
       sodipodi:cy="54.744789"
       sodipodi:rx="58.427727"
       sodipodi:ry="60.591717"
       d="m -324.59849,54.744789 a 58.427727,60.591717 0 1 1 -116.85545,0 58.427727,60.591717 0 1 1 116.85545,0 z"
       transform="matrix(0.2425771,0,0,0.23391362,216.92913,-251.97948)" />
    <g
       id="g3115"
       transform="translate(-11.141684,25.433064)">
      <path
         transform="matrix(0.89752975,0,0,0.8270096,726.17193,-253.08304)"
         d="m -266.24991,338.15469 a 197.39218,214.22406 0 1 1 -394.78436,0 197.39218,214.22406 0 1 1 394.78436,0 z"
         sodipodi:ry="214.22406"
         sodipodi:rx="197.39218"
         sodipodi:cy="338.15469"
         sodipodi:cx="-463.64209"
         id="path3044"
         style="color:#000000;fill:#0000ff;fill-opacity:0.58704451;fill-rule:evenodd;stroke:none;stroke-width:7.08661413;marker:none;visibility:visible;display:inline;overflow:visible;enable-background:accumulate"
         sodipodi:type="arc" />
      <path
         sodipodi:type="arc"
         style="color:#000000;fill:#0000ff;fill-opacity:0.58704451;fill-rule:evenodd;stroke:none;stroke-width:7.08661413;marker:none;visibility:visible;display:inline;overflow:visible;enable-background:accumulate"
         id="path3046"
         sodipodi:cx="-463.64209"
         sodipodi:cy="338.15469"
         sodipodi:rx="197.39218"
         sodipodi:ry="214.22406"
         d="m -266.24991,338.15469 a 197.39218,214.22406 0 1 1 -394.78436,0 197.39218,214.22406 0 1 1 394.78436,0 z"
         transform="matrix(0.89752975,0,0,0.8270096,1100.5026,-253.08304)" />
      <path
         transform="matrix(0.89752975,0,0,0.8270096,1474.8333,-253.08304)"
         d="m -266.24991,338.15469 a 197.39218,214.22406 0 1 1 -394.78436,0 197.39218,214.22406 0 1 1 394.78436,0 z"
         sodipodi:ry="214.22406"
         sodipodi:rx="197.39218"
         sodipodi:cy="338.15469"
         sodipodi:cx="-463.64209"
         id="path3048"
         style="color:#000000;fill:#0000ff;fill-opacity:0.58704451;fill-rule:evenodd;stroke:none;stroke-width:7.08661413;marker:none;visibility:visible;display:inline;overflow:visible;enable-background:accumulate"
         sodipodi:type="arc" />
      <path
         sodipodi:type="arc"
         style="color:#000000;fill:#0000ff;fill-opacity:0.58704451;fill-rule:evenodd;stroke:none;stroke-width:7.08661413;marker:none;visibility:visible;display:inline;overflow:visible;enable-background:accumulate"
         id="path3050"
         sodipodi:cx="-463.64209"
         sodipodi:cy="338.15469"
         sodipodi:rx="197.39218"
         sodipodi:ry="214.22406"
         d="m -266.24991,338.15469 a 197.39218,214.22406 0 1 1 -394.78436,0 197.39218,214.22406 0 1 1 394.78436,0 z"
         transform="matrix(0.89752975,0,0,0.8270096,726.17193,121.24765)" />
      <path
         transform="matrix(0.89752975,0,0,0.8270096,1100.5026,121.24765)"
         d="m -266.24991,338.15469 a 197.39218,214.22406 0 1 1 -394.78436,0 197.39218,214.22406 0 1 1 394.78436,0 z"
         sodipodi:ry="214.22406"
         sodipodi:rx="197.39218"
         sodipodi:cy="338.15469"
         sodipodi:cx="-463.64209"
         id="path3056"
         style="color:#000000;fill:#0000ff;fill-opacity:0.58704451;fill-rule:evenodd;stroke:none;stroke-width:7.08661413;marker:none;visibility:visible;display:inline;overflow:visible;enable-background:accumulate"
         sodipodi:type="arc" />
      <path
         sodipodi:type="arc"
         style="color:#000000;fill:#0000ff;fill-opacity:0.58704451;fill-rule:evenodd;stroke:none;stroke-width:7.08661413;marker:none;visibility:visible;display:inline;overflow:visible;enable-background:accumulate"
         id="path3058"
         sodipodi:cx="-463.64209"
         sodipodi:cy="338.15469"
         sodipodi:rx="197.39218"
         sodipodi:ry="214.22406"
         d="m -266.24991,338.15469 a 197.39218,214.22406 0 1 1 -394.78436,0 197.39218,214.22406 0 1 1 394.78436,0 z"
         transform="matrix(0.89752975,0,0,0.8270096,1474.8333,121.24765)" />
    </g>
    <rect
       style="color:#000000;fill:#ffff00;fill-opacity:0.58704451;fill-rule:evenodd;stroke:none;stroke-width:7.08661413;marker:none;visibility:visible;display:inline;overflow:visible;enable-background:accumulate"
       id="rect3095"
       width="1275.5906"
       height="354.33072"
       x="0"
       y="733.46381"
       ry="0" />
  </g>
  <g
     inkscape:groupmode="layer"
     id="layer2"
     inkscape:label="Cuts"
     style="display:inline">
    <path
       inkscape:connector-curvature="0"
       style="color:#000000;fill:#008000;fill-opacity:0.58704451;fill-rule:evenodd;stroke:none;stroke-width:7.08661413;marker:none;visibility:visible;display:inline;overflow:visible;enable-background:accumulate"
       d="M 0,-4.7851563e-7 0,1016.9375 l 1328.9368,0 c 0,0 7.8737,0.4083 13.157,-5.875 5.2833,-6.2833 4.375,-11.87784 4.375,-11.87784 l 0,-531.46591 390.5624,0 0,-467.71875047851563 z"
       id="rect2994"
       sodipodi:nodetypes="ccczccccc" />
    <path
       sodipodi:type="arc"
       style="color:#000000;fill:#008000;fill-opacity:0.58704451;fill-rule:evenodd;stroke:none;stroke-width:7.08661413;marker:none;visibility:visible;display:inline;overflow:visible;enable-background:accumulate"
       id="path2989-7"
       sodipodi:cx="-383.02621"
       sodipodi:cy="54.744789"
       sodipodi:rx="58.427727"
       sodipodi:ry="60.591717"
       d="m -324.59849,54.744789 a 58.427727,60.591717 0 1 1 -116.85545,0 58.427727,60.591717 0 1 1 116.85545,0 z"
       transform="matrix(0.2425771,0,0,0.23391362,216.92913,31.485758)" />
    <rect
       style="color:#000000;fill:#008000;fill-opacity:0.58704451;fill-rule:evenodd;stroke:none;stroke-width:7.08661413;marker:none;visibility:visible;display:inline;overflow:visible;enable-background:accumulate"
       id="rect3060"
       width="1169.2914"
       height="779.52759"
       x="88.582672"
       y="132.87399"
       ry="165.30174" />
    <path
       sodipodi:type="arc"
       style="color:#000000;fill:#008000;fill-opacity:0.58704451;fill-rule:evenodd;stroke:none;stroke-width:7.08661413;marker:none;visibility:visible;display:inline;overflow:visible;enable-background:accumulate"
       id="path3148"
       sodipodi:cx="-207.88939"
       sodipodi:cy="574.97992"
       sodipodi:rx="41.012192"
       sodipodi:ry="39.59798"
       d="m -166.8772,574.97992 a 41.012192,39.59798 0 1 1 -82.02438,0 41.012192,39.59798 0 1 1 82.02438,0 z"
       transform="matrix(0.12959465,0,0,0.13422302,1329.134,895.42446)" />
    <path
       transform="matrix(0.12959465,0,0,0.13422302,71.23269,895.42329)"
       d="m -166.8772,574.97992 a 41.012192,39.59798 0 1 1 -82.02438,0 41.012192,39.59798 0 1 1 82.02438,0 z"
       sodipodi:ry="39.59798"
       sodipodi:rx="41.012192"
       sodipodi:cy="574.97992"
       sodipodi:cx="-207.88939"
       id="path3150"
       style="color:#000000;fill:#008000;fill-opacity:0.58704451;fill-rule:evenodd;stroke:none;stroke-width:7.08661413;marker:none;visibility:visible;display:inline;overflow:visible;enable-background:accumulate"
       sodipodi:type="arc" />
    <path
       sodipodi:type="arc"
       style="color:#000000;fill:#008000;fill-opacity:0.58704451;fill-rule:evenodd;stroke:none;stroke-width:7.08661413;marker:none;visibility:visible;display:inline;overflow:visible;enable-background:accumulate"
       id="path3156"
       sodipodi:cx="-207.88939"
       sodipodi:cy="574.97992"
       sodipodi:rx="41.012192"
       sodipodi:ry="39.59798"
       d="m -166.8772,574.97992 a 41.012192,39.59798 0 1 1 -82.02438,0 41.012192,39.59798 0 1 1 82.02438,0 z"
       transform="matrix(0.12959465,0,0,0.13422302,71.23269,-32.884231)" />
    <path
       transform="matrix(0.12959465,0,0,0.13422302,1719.6813,-32.884231)"
       d="m -166.8772,574.97992 a 41.012192,39.59798 0 1 1 -82.02438,0 41.012192,39.59798 0 1 1 82.02438,0 z"
       sodipodi:ry="39.59798"
       sodipodi:rx="41.012192"
       sodipodi:cy="574.97992"
       sodipodi:cx="-207.88939"
       id="path3158"
       style="color:#000000;fill:#008000;fill-opacity:0.58704451;fill-rule:evenodd;stroke:none;stroke-width:7.08661413;marker:none;visibility:visible;display:inline;overflow:visible;enable-background:accumulate"
       sodipodi:type="arc" />
    <path
       sodipodi:type="arc"
       style="color:#000000;fill:#008000;fill-opacity:0.58704451;fill-rule:evenodd;stroke:none;stroke-width:7.08661413;marker:none;visibility:visible;display:inline;overflow:visible;enable-background:accumulate"
       id="path3160"
       sodipodi:cx="-207.88939"
       sodipodi:cy="574.97992"
       sodipodi:rx="41.012192"
       sodipodi:ry="39.59798"
       d="m -166.8772,574.97992 a 41.012192,39.59798 0 1 1 -82.02438,0 41.012192,39.59798 0 1 1 82.02438,0 z"
       transform="matrix(0.12959465,0,0,0.13422302,1719.6813,346.24996)" />
  </g>
</svg>
