<?xml version="1.0" encoding="UTF-8" standalone="no"?>
<!-- Created with Inkscape (http://www.inkscape.org/) -->

<svg
   xmlns:dc="http://purl.org/dc/elements/1.1/"
   xmlns:cc="http://creativecommons.org/ns#"
   xmlns:rdf="http://www.w3.org/1999/02/22-rdf-syntax-ns#"
   xmlns:svg="http://www.w3.org/2000/svg"
   xmlns="http://www.w3.org/2000/svg"
   xmlns:sodipodi="http://sodipodi.sourceforge.net/DTD/sodipodi-0.dtd"
   xmlns:inkscape="http://www.inkscape.org/namespaces/inkscape"
   width="464.31497"
   height="1165.4702"
   id="svg3001"
   version="1.1"
   inkscape:version="0.48.4 r9939"
   sodipodi:docname="tumber_adapter.svg">
  <defs
     id="defs3" />
  <sodipodi:namedview
     inkscape:document-units="mm"
     id="base"
     pagecolor="#ffffff"
     bordercolor="#666666"
     borderopacity="1.0"
     inkscape:pageopacity="0.0"
     inkscape:pageshadow="2"
     inkscape:zoom="0.66512232"
     inkscape:cx="18.426626"
     inkscape:cy="440.24241"
     inkscape:current-layer="layer1"
     showgrid="false"
     units="mm"
     fit-margin-top="0"
     fit-margin-left="0"
     fit-margin-right="0"
     fit-margin-bottom="0"
     inkscape:window-width="1436"
     inkscape:window-height="877"
     inkscape:window-x="0"
     inkscape:window-y="19"
     inkscape:window-maximized="1" />
  <metadata
     id="metadata4">
    <rdf:RDF>
      <cc:Work
         rdf:about="">
        <dc:format>image/svg+xml</dc:format>
        <dc:type
           rdf:resource="http://purl.org/dc/dcmitype/StillImage" />
        <dc:title />
      </cc:Work>
    </rdf:RDF>
  </metadata>
  <g
     inkscape:label="Layer 1"
     inkscape:groupmode="layer"
     id="layer1"
     transform="translate(3.3904426e-7,113.10809)">
    <path
       transform="matrix(1.3387509,0,0,1.4680097,367.92452,676.90308)"
       style="color:#000000;fill:#008000;fill-opacity:0.58704451;fill-rule:evenodd;stroke:none;stroke-width:7.08661413;marker:none;visibility:visible;display:inline;overflow:visible;enable-background:accumulate"
       d="m -102.78952,177.31601 c 0,43.32377 -38.51184,78.44463 -86.0186,78.44463 -47.50676,0 -86.0186,-35.12086 -86.0186,-78.44463 0,-43.32378 38.51184,-78.444634 86.0186,-78.444634 47.50676,0 86.0186,35.120854 86.0186,78.444634 z"
       id="path3009" />
    <path
       inkscape:connector-curvature="0"
       id="path3014"
       d="m 230.31496,703.17703 c 0,63.59972 -51.55776,115.15748 -115.15748,115.15748 C 51.557762,818.33451 1.255952e-6,766.77675 1.255952e-6,703.17703 1.255952e-6,639.5773 51.557762,588.01955 115.15748,588.01955 c 63.59972,0 115.15748,51.55775 115.15748,115.15748 z"
       style="color:#000000;fill:#008000;fill-opacity:0.58704451;fill-rule:evenodd;stroke:none;stroke-width:7.08661413;marker:none;visibility:visible;display:inline;overflow:visible;enable-background:accumulate" />
    <path
       inkscape:connector-curvature="0"
       id="path3016"
       d="m 207.28348,703.17702 c 0,50.87977 -41.24622,92.12598 -92.12599,92.12598 -50.879771,0 -92.125978,-41.24621 -92.125978,-92.12598 0,-50.87978 41.246207,-92.12599 92.125978,-92.12599 50.87977,0 92.12599,41.24621 92.12599,92.12599 z"
       style="color:#000000;fill:#008000;fill-opacity:0.58704451;fill-rule:evenodd;stroke:none;stroke-width:7.08661413;marker:none;visibility:visible;display:inline;overflow:visible;enable-background:accumulate" />
    <path
       inkscape:connector-curvature="0"
       id="path3024"
       d="m 230.31496,469.17703 c 0,63.59972 -51.55776,115.15748 -115.15748,115.15748 C 51.557762,584.33451 1.255952e-6,532.77675 1.255952e-6,469.17703 1.255952e-6,405.5773 51.557762,354.01955 115.15748,354.01955 c 63.59972,0 115.15748,51.55775 115.15748,115.15748 z"
       style="color:#000000;fill:#008000;fill-opacity:0.58704451;fill-rule:evenodd;stroke:none;stroke-width:7.08661413;marker:none;visibility:visible;display:inline;overflow:visible;enable-background:accumulate" />
    <path
       inkscape:connector-curvature="0"
       id="path3026"
       d="m 207.28348,469.17702 c 0,50.87978 -41.24622,92.12598 -92.12599,92.12598 -50.879771,0 -92.125978,-41.2462 -92.125978,-92.12598 0,-50.87979 41.246207,-92.12598 92.125978,-92.12598 50.87977,0 92.12599,41.24619 92.12599,92.12598 z"
       style="color:#000000;fill:#008000;fill-opacity:0.58704451;fill-rule:evenodd;stroke:none;stroke-width:7.08661413;marker:none;visibility:visible;display:inline;overflow:visible;enable-background:accumulate" />
    <path
       inkscape:connector-curvature="0"
       id="path3030"
       d="m 230.31496,235.17703 c 0,63.59972 -51.55776,115.15748 -115.15748,115.15748 C 51.557762,350.33451 1.255952e-6,298.77675 1.255952e-6,235.17703 1.255952e-6,171.5773 51.557762,120.01955 115.15748,120.01955 c 63.59972,0 115.15748,51.55775 115.15748,115.15748 z"
       style="color:#000000;fill:#008000;fill-opacity:0.58704451;fill-rule:evenodd;stroke:none;stroke-width:7.08661413;marker:none;visibility:visible;display:inline;overflow:visible;enable-background:accumulate" />
    <path
       inkscape:connector-curvature="0"
       id="path3032"
       d="m 207.28348,235.17702 c 0,50.87977 -41.24622,92.12599 -92.12599,92.12599 -50.879771,0 -92.125978,-41.24622 -92.125978,-92.12599 0,-50.87977 41.246207,-92.12598 92.125978,-92.12598 50.87977,0 92.12599,41.24621 92.12599,92.12598 z"
       style="color:#000000;fill:#008000;fill-opacity:0.58704451;fill-rule:evenodd;stroke:none;stroke-width:7.08661413;marker:none;visibility:visible;display:inline;overflow:visible;enable-background:accumulate" />
    <path
       inkscape:connector-curvature="0"
       id="path3068"
       d="M 230.31496,2.0493926 C 230.31496,65.649107 178.7572,117.20687 115.15748,117.20687 51.557762,117.20687 1.255952e-6,65.649107 1.255952e-6,2.0493926 1.255952e-6,-61.550337 51.557762,-113.10809 115.15748,-113.10809 c 63.59972,0 115.15748,51.557753 115.15748,115.1574826 z"
       style="color:#000000;fill:#008000;fill-opacity:0.58704451;fill-rule:evenodd;stroke:none;stroke-width:7.08661413;marker:none;visibility:visible;display:inline;overflow:visible;enable-background:accumulate" />
    <path
       inkscape:connector-curvature="0"
       id="path3070"
       d="m 207.28348,2.049381 c 0,50.879771 -41.24622,92.125979 -92.12599,92.125979 -50.879771,0 -92.125978,-41.246208 -92.125978,-92.125979 0,-50.879782 41.246207,-92.125984 92.125978,-92.125984 50.87977,0 92.12599,41.246202 92.12599,92.125984 z"
       style="color:#000000;fill:#008000;fill-opacity:0.58704451;fill-rule:evenodd;stroke:none;stroke-width:7.08661413;marker:none;visibility:visible;display:inline;overflow:visible;enable-background:accumulate" />
    <path
       transform="matrix(1.3387509,0,0,1.4680097,601.92452,676.90308)"
       style="color:#000000;fill:#008000;fill-opacity:0.58704451;fill-rule:evenodd;stroke:none;stroke-width:7.08661413;marker:none;visibility:visible;display:inline;overflow:visible;enable-background:accumulate"
       d="m -102.78952,177.31601 c 0,43.32377 -38.51184,78.44463 -86.0186,78.44463 -47.50676,0 -86.0186,-35.12086 -86.0186,-78.44463 0,-43.32378 38.51184,-78.444634 86.0186,-78.444634 47.50676,0 86.0186,35.120854 86.0186,78.444634 z"
       id="path3072" />
    <path
       inkscape:connector-curvature="0"
       id="path3076"
       d="m 464.31496,703.17703 c 0,63.59972 -51.55776,115.15748 -115.15748,115.15748 C 285.55776,818.33451 234,766.77675 234,703.17703 c 0,-63.59973 51.55776,-115.15748 115.15748,-115.15748 63.59972,0 115.15748,51.55775 115.15748,115.15748 z"
       style="color:#000000;fill:#008000;fill-opacity:0.58704451;fill-rule:evenodd;stroke:none;stroke-width:7.08661413;marker:none;visibility:visible;display:inline;overflow:visible;enable-background:accumulate" />
    <path
       inkscape:connector-curvature="0"
       id="path3078"
       d="m 441.28348,703.17702 c 0,50.87977 -41.24622,92.12598 -92.12599,92.12598 -50.87976,0 -92.12598,-41.24621 -92.12598,-92.12598 0,-50.87978 41.24622,-92.12599 92.12598,-92.12599 50.87977,0 92.12599,41.24621 92.12599,92.12599 z"
       style="color:#000000;fill:#008000;fill-opacity:0.58704451;fill-rule:evenodd;stroke:none;stroke-width:7.08661413;marker:none;visibility:visible;display:inline;overflow:visible;enable-background:accumulate" />
    <path
       inkscape:connector-curvature="0"
       id="path3082"
       d="m 464.31496,469.17703 c 0,63.59972 -51.55776,115.15748 -115.15748,115.15748 C 285.55776,584.33451 234,532.77675 234,469.17703 c 0,-63.59973 51.55776,-115.15748 115.15748,-115.15748 63.59972,0 115.15748,51.55775 115.15748,115.15748 z"
       style="color:#000000;fill:#008000;fill-opacity:0.58704451;fill-rule:evenodd;stroke:none;stroke-width:7.08661413;marker:none;visibility:visible;display:inline;overflow:visible;enable-background:accumulate" />
    <path
       inkscape:connector-curvature="0"
       id="path3084"
       d="m 441.28348,469.17702 c 0,50.87978 -41.24622,92.12598 -92.12599,92.12598 -50.87976,0 -92.12598,-41.2462 -92.12598,-92.12598 0,-50.87979 41.24622,-92.12598 92.12598,-92.12598 50.87977,0 92.12599,41.24619 92.12599,92.12598 z"
       style="color:#000000;fill:#008000;fill-opacity:0.58704451;fill-rule:evenodd;stroke:none;stroke-width:7.08661413;marker:none;visibility:visible;display:inline;overflow:visible;enable-background:accumulate" />
    <path
       inkscape:connector-curvature="0"
       id="path3088"
       d="m 464.31496,235.17703 c 0,63.59972 -51.55776,115.15748 -115.15748,115.15748 C 285.55776,350.33451 234,298.77675 234,235.17703 c 0,-63.59973 51.55776,-115.15748 115.15748,-115.15748 63.59972,0 115.15748,51.55775 115.15748,115.15748 z"
       style="color:#000000;fill:#008000;fill-opacity:0.58704451;fill-rule:evenodd;stroke:none;stroke-width:7.08661413;marker:none;visibility:visible;display:inline;overflow:visible;enable-background:accumulate" />
    <path
       inkscape:connector-curvature="0"
       id="path3090"
       d="m 441.28348,235.17702 c 0,50.87977 -41.24622,92.12599 -92.12599,92.12599 -50.87976,0 -92.12598,-41.24622 -92.12598,-92.12599 0,-50.87977 41.24622,-92.12598 92.12598,-92.12598 50.87977,0 92.12599,41.24621 92.12599,92.12598 z"
       style="color:#000000;fill:#008000;fill-opacity:0.58704451;fill-rule:evenodd;stroke:none;stroke-width:7.08661413;marker:none;visibility:visible;display:inline;overflow:visible;enable-background:accumulate" />
    <path
       inkscape:connector-curvature="0"
       id="path3094"
       d="M 464.31496,2.0493926 C 464.31496,65.649107 412.7572,117.20687 349.15748,117.20687 285.55776,117.20687 234,65.649107 234,2.0493926 234,-61.550337 285.55776,-113.10809 349.15748,-113.10809 c 63.59972,0 115.15748,51.557753 115.15748,115.1574826 z"
       style="color:#000000;fill:#008000;fill-opacity:0.58704451;fill-rule:evenodd;stroke:none;stroke-width:7.08661413;marker:none;visibility:visible;display:inline;overflow:visible;enable-background:accumulate" />
    <path
       inkscape:connector-curvature="0"
       id="path3096"
       d="m 441.28348,2.049381 c 0,50.879771 -41.24622,92.125979 -92.12599,92.125979 -50.87976,0 -92.12598,-41.246208 -92.12598,-92.125979 0,-50.879782 41.24622,-92.125984 92.12598,-92.125984 50.87977,0 92.12599,41.246202 92.12599,92.125984 z"
       style="color:#000000;fill:#008000;fill-opacity:0.58704451;fill-rule:evenodd;stroke:none;stroke-width:7.08661413;marker:none;visibility:visible;display:inline;overflow:visible;enable-background:accumulate" />
  </g>
</svg>
